<?xml version="1.0"?>
<svg width="400" height="151" xmlns="http://www.w3.org/2000/svg" xmlns:svg="http://www.w3.org/2000/svg" enable-background="new 0 0 400 151" version="1.1" xml:space="preserve">
 <g class="layer">
  <title>Layer 1</title>
  <g id="svg_20">
   <path d="m256.3,148.67c-84.68,0 -168.85,0 -253.04,0c0,-48.55 0,-97.11 0,-145.67c131.79,0 263.58,0 395.37,0c0,48.55 0,97.11 0,145.67c-47.28,0 -94.56,0 -142.33,0m-140.85,-15.26c0.17,-0.05 0.34,-0.09 1.24,0.03c0.74,-0.07 1.48,-0.14 2.96,-0.04c0.75,-0.05 1.49,-0.1 3.15,0.05c5.29,-0.07 10.59,-0.13 16.38,-0.08c0.17,-0.05 0.33,-0.1 1.26,-0.07c3.68,-1.07 3.94,-3.71 3.45,-7.3c-0.04,-0.17 -0.09,-0.35 0.08,-1.4c-0.07,-19.62 -0.15,-39.24 -0.09,-59.38c-0.05,-0.17 -0.1,-0.34 0.08,-1.3c-0.49,-6.33 -5.55,-8.11 -15.05,-5.28c6.46,18.97 3.22,35.58 -12.42,49.3c-1.09,0.96 -1.42,3.09 -1.5,4.7c-0.31,6.39 -0.38,12.79 -0.85,19.63c0.28,0.34 0.55,0.67 1.33,1.13m36.57,-75.68c-0.18,0.07 -0.35,0.13 -1.31,0.54c-0.07,24.4 -0.14,48.79 -0.15,73.19c0,0.64 0.61,1.27 1.46,2.09c0.18,-0.06 0.36,-0.12 1.42,0.08c72.62,0.02 145.23,0.05 217.85,0.04c8.1,0 11.8,-3.64 11.82,-11.48c0.04,-17.03 0.01,-34.06 0.01,-51.1c0,-10.47 -3.07,-13.49 -13.76,-13.49c-70.47,0 -140.95,0 -211.42,0.01c-1.8,0 -3.6,0.17 -5.92,0.12m-99.32,75.72c16.14,0.01 32.28,0.07 48.42,0.02c5.32,-0.01 7.12,-1.78 7.24,-6.94c0.11,-4.3 0.03,-8.61 0.03,-13.59c-15.63,7.41 -29.85,4.52 -43.42,-3.93c-4.46,-2.77 -4.76,-5.18 -1.09,-8.87c6.54,-6.56 13.2,-13.02 19.78,-19.55c4.22,-4.19 4.25,-6.32 0,-10.52c-6.6,-6.52 -13.31,-12.93 -19.88,-19.48c-3.38,-3.37 -3.3,-5.98 0.44,-8.36c12.78,-8.11 26.27,-11.78 41.15,-5.67c0.84,0.34 1.75,0.5 3.02,0.86c0,-4.27 0.06,-8.1 -0.01,-11.93c-0.11,-5.47 -1.88,-7.26 -7.45,-7.28c-15.48,-0.06 -30.96,-0.07 -46.44,0c-5.41,0.02 -7.31,1.98 -7.37,7.39c-0.09,7.39 -0.22,14.79 0.08,22.17c0.07,1.99 1.14,4.32 2.53,5.8c5.02,5.31 10.38,10.31 15.61,15.43c5.83,5.71 5.78,7.09 -0.15,12.98c-6,5.95 -14.3,11.03 -17.25,18.18c-3.02,7.35 -0.79,16.77 -0.86,25.27c-0.01,0.48 -0.01,0.96 0,1.45c0.08,3.21 1.33,5.6 5.61,6.56m-34.25,-19.99c0.01,4.66 -0.04,9.32 0.05,13.98c0.06,3.23 1.47,5.94 5,6.14c5.97,0.33 11.98,0.09 17.23,0.09c0,-9.49 0.07,-18.44 -0.07,-27.4c-0.02,-1.61 -0.46,-3.53 -1.43,-4.78c-12.64,-16.08 -13.75,-32.51 -1.77,-49.38c4.15,-5.86 2.8,-11.26 3.2,-17.42c-3.57,0 -6.51,0 -9.46,0c-12.61,0 -12.75,0.14 -12.75,12.24c0,21.86 0,43.71 0,66.53z" fill="#FDFDFD" id="svg_1" opacity="1"/>
   <path d="m151.49,133.37c-0.33,-0.64 -0.94,-1.27 -0.94,-1.91c0.01,-24.4 0.08,-48.79 0.64,-73.2c0.78,-0.14 1.06,-0.25 1.34,-0.38c1.8,-0.1 3.6,-0.27 5.4,-0.27c70.47,-0.01 140.95,-0.01 211.42,-0.01c10.68,0 13.76,3.02 13.76,13.49c0,17.04 0.03,34.07 -0.01,51.1c-0.02,7.84 -3.73,11.48 -11.82,11.48c-72.62,0.01 -145.23,-0.02 -218.38,-0.34c-0.83,-0.19 -1.13,-0.08 -1.41,0.04m89.52,-37.13c0.24,-0.36 0.48,-0.71 1.28,-0.68c4.28,6.1 9.13,11.88 12.69,18.35c3.84,6.97 9.2,8.1 16.38,6.35c0,-15.48 0,-31 0,-46.65c-3.76,0 -7.27,0 -11.17,0c0,8.71 0,17.12 0,26.7c-1.62,-2.17 -2.57,-3.37 -3.43,-4.63c-4.47,-6.55 -8.85,-13.16 -13.41,-19.63c-0.82,-1.17 -2.31,-2.48 -3.62,-2.61c-3.52,-0.37 -7.11,-0.13 -10.68,-0.13c0,16.13 0,31.63 0,47.14c3.81,0 7.32,0 11.39,0c0,-8.18 0,-16.01 0.56,-24.2m-34.03,-20.19c0,8.85 0.03,17.68 -0.01,26.52c-0.03,6.01 -2.2,8.54 -7.35,8.72c-5.85,0.21 -9.28,-2.76 -9.53,-8.63c-0.21,-4.97 -0.07,-9.96 -0.08,-14.93c-0.01,-4.76 0,-9.5 0,-14.2c-4.63,0 -8.52,0 -12.73,0c0,11.44 -0.32,22.66 0.11,33.85c0.26,6.71 4.23,11.94 11.04,13.17c5.81,1.05 12.14,1.15 17.94,0.1c7.46,-1.36 12.25,-6.82 12.66,-14.23c0.6,-10.85 0.16,-21.75 0.16,-33.12c-2.99,0 -5.77,-0.18 -8.49,0.09c-1.28,0.13 -2.48,1.14 -3.72,2.67m70,37.43c-0.73,2.26 -1.47,4.51 -2.32,7.1c4.23,0 7.96,0 11.58,0c4.26,-10.5 4.29,-10.05 12.58,-10.64c5.84,-0.41 8.71,1.37 9.66,6.96c0.25,1.43 1.97,3.5 3.25,3.69c3.45,0.52 7.03,0.17 10.99,0.17c-5.23,-16.24 -10.24,-31.78 -15.29,-47.48c-4.6,0 -8.87,0.17 -13.12,-0.06c-2.81,-0.14 -3.99,0.84 -4.85,3.44c-3.95,12.06 -8.15,24.05 -12.48,36.8m70.71,7.29c3.43,0 6.86,0 10.77,0c0.31,-3.18 0.59,-6.1 0.92,-9.37c-6.64,0 -12.65,0 -19.28,0c0,-12.84 0,-25.38 0,-37.88c-4.52,0 -8.4,0 -12.38,0c0,15.83 0,31.43 0,47.25c6.54,0 12.77,0 19.98,0z" fill="#424244" id="svg_2" opacity="1"/>
   <path d="m52.28,133.4c-3.85,-0.92 -5.11,-3.3 -5.19,-6.51c-0.01,-0.48 -0.01,-0.96 0,-1.45c0.07,-8.51 -2.16,-17.92 0.86,-25.27c2.95,-7.16 11.25,-12.23 17.25,-18.18c5.93,-5.89 5.98,-7.27 0.15,-12.98c-5.23,-5.12 -10.59,-10.13 -15.61,-15.43c-1.39,-1.48 -2.46,-3.81 -2.53,-5.8c-0.3,-7.38 -0.17,-14.78 -0.08,-22.17c0.06,-5.41 1.97,-7.37 7.37,-7.39c15.48,-0.07 30.96,-0.06 46.44,0c5.57,0.02 7.34,1.81 7.45,7.28c0.07,3.83 0.01,7.66 0.01,11.93c-1.28,-0.36 -2.18,-0.52 -3.02,-0.86c-14.88,-6.11 -28.37,-2.44 -41.15,5.67c-3.75,2.38 -3.83,5 -0.44,8.36c6.56,6.55 13.27,12.96 19.88,19.48c4.25,4.2 4.22,6.33 0,10.52c-6.58,6.53 -13.24,12.99 -19.78,19.55c-3.68,3.69 -3.37,6.1 1.09,8.87c13.57,8.45 27.79,11.33 43.42,3.93c0,4.98 0.08,9.29 -0.03,13.59c-0.12,5.16 -1.92,6.93 -7.24,6.94c-16.14,0.05 -32.28,-0.01 -48.85,-0.07z" fill="#0683C4" id="svg_3" opacity="1"/>
   <path d="m18.45,112.97c0,-22.34 0,-44.19 0,-66.05c0,-12.1 0.14,-12.24 12.75,-12.24c2.95,0 5.89,0 9.46,0c-0.41,6.16 0.95,11.57 -3.2,17.42c-11.98,16.87 -10.87,33.3 1.77,49.38c0.97,1.24 1.41,3.16 1.43,4.78c0.14,8.95 0.07,17.9 0.07,27.4c-5.25,0 -11.26,0.24 -17.23,-0.09c-3.53,-0.19 -4.94,-2.9 -5,-6.14c-0.09,-4.66 -0.04,-9.32 -0.05,-14.46z" fill="#DF6741" id="svg_4" opacity="1"/>
   <path d="m118.91,133.24c-0.74,0.06 -1.48,0.13 -2.69,-0.11c-0.65,-0.57 -0.91,-0.75 -1.37,-0.96c-0.13,-0.13 -0.42,-0.35 -0.42,-0.35c0.16,-6.4 0.23,-12.8 0.53,-19.19c0.08,-1.61 0.42,-3.74 1.5,-4.7c15.65,-13.73 18.89,-30.34 12.42,-49.3c9.51,-2.84 14.56,-1.05 14.77,5.77c-0.17,0.76 -0.04,1.04 0.08,1.32c0.07,19.62 0.15,39.24 -0.07,59.4c-0.37,0.64 -0.52,0.82 -0.5,0.85c0.17,0.19 0.38,0.36 0.56,0.53c0.64,3.08 0.38,5.72 -3.78,6.6c-0.74,-0.09 -1.01,0.03 -1.28,0.14c-5.29,0.07 -10.59,0.13 -16.51,-0.14c-1.51,-0.18 -2.38,-0.03 -3.25,0.14z" fill="#DE633D" id="svg_5" opacity="1"/>
   <path d="m119.27,133.32c0.5,-0.24 1.37,-0.4 2.43,-0.31c-0.57,0.29 -1.31,0.34 -2.43,0.31z" fill="#DE562C" id="svg_6" opacity="1"/>
   <path d="m143.8,65.48c-0.19,-0.03 -0.32,-0.31 -0.27,-0.68c0.23,0.08 0.28,0.24 0.27,0.68z" fill="#DD5A2C" id="svg_7" opacity="1"/>
   <path d="m152.27,57.8c-0.02,0.2 -0.3,0.32 -0.67,0.27c0.07,-0.22 0.24,-0.28 0.67,-0.27z" fill="#323232" id="svg_8" opacity="1"/>
   <path d="m143.8,126.25c-0.27,0.09 -0.47,-0.08 -0.64,-0.27c-0.02,-0.03 0.14,-0.21 0.4,-0.41c0.23,0.08 0.28,0.25 0.25,0.68z" fill="#DD5A2C" id="svg_9" opacity="1"/>
   <path d="m114.94,133.27c-0.28,-0.33 -0.55,-0.66 -0.67,-1.22c0.16,-0.22 0.44,0 0.56,0.37c0.12,0.52 0.12,0.68 0.11,0.85z" fill="#DE633D" id="svg_10" opacity="1"/>
   <path d="m115.2,133.34c-0.25,-0.23 -0.25,-0.4 -0.23,-0.79c0.34,-0.16 0.59,0.02 0.88,0.51c-0.07,0.26 -0.24,0.3 -0.65,0.28z" fill="#DE562C" id="svg_11" opacity="1"/>
   <path d="m138.92,133.31c0.02,-0.17 0.29,-0.29 0.64,-0.24c-0.07,0.2 -0.23,0.25 -0.64,0.24z" fill="#DE562C" id="svg_12" opacity="1"/>
   <path d="m151.75,133.45c0.03,-0.2 0.33,-0.32 0.7,-0.25c-0.08,0.23 -0.26,0.29 -0.7,0.25z" fill="#353537" id="svg_13" opacity="1"/>
   <path d="m240.45,96.58c0,7.84 0,15.68 0,23.86c-4.06,0 -7.58,0 -11.39,0c0,-15.51 0,-31.01 0,-47.14c3.57,0 7.16,-0.24 10.68,0.13c1.3,0.14 2.8,1.45 3.62,2.61c4.57,6.47 8.95,13.08 13.41,19.63c0.86,1.26 1.81,2.46 3.43,4.63c0,-9.58 0,-17.99 0,-26.7c3.89,0 7.41,0 11.17,0c0,15.65 0,31.17 0,46.65c-7.18,1.76 -12.54,0.63 -16.38,-6.35c-3.56,-6.46 -8.41,-12.25 -13.07,-18.85c-0.71,-0.67 -1.05,-0.83 -1.39,-0.99c-0.02,0.84 -0.05,1.68 -0.08,2.53z" fill="#FBFBFB" id="svg_14" opacity="1"/>
   <path d="m206.98,75.59c1.24,-1.08 2.43,-2.09 3.72,-2.22c2.72,-0.27 5.5,-0.09 8.49,-0.09c0,11.36 0.44,22.26 -0.16,33.12c-0.42,7.41 -5.2,12.87 -12.66,14.23c-5.8,1.05 -12.13,0.96 -17.94,-0.1c-6.81,-1.23 -10.78,-6.45 -11.04,-13.17c-0.43,-11.19 -0.11,-22.41 -0.11,-33.85c4.21,0 8.11,0 12.73,0c0,4.7 -0.01,9.44 0,14.2c0.01,4.98 -0.13,9.97 0.08,14.93c0.25,5.87 3.68,8.85 9.53,8.63c5.15,-0.18 7.32,-2.71 7.35,-8.72c0.04,-8.84 0.01,-17.67 0.01,-26.97z" fill="#FAFAFA" id="svg_15" opacity="1"/>
   <path d="m277.09,113.11c4.22,-12.39 8.42,-24.38 12.38,-36.44c0.86,-2.6 2.05,-3.59 4.85,-3.44c4.25,0.23 8.52,0.06 13.12,0.06c5.05,15.7 10.06,31.25 15.29,47.48c-3.96,0 -7.54,0.35 -10.99,-0.17c-1.28,-0.19 -3,-2.27 -3.25,-3.69c-0.95,-5.6 -3.82,-7.38 -9.66,-6.96c-8.29,0.59 -8.32,0.14 -12.58,10.64c-3.63,0 -7.35,0 -11.58,0c0.85,-2.59 1.59,-4.84 2.43,-7.47m21.66,-27.22c-0.2,-0.15 -0.39,-0.34 -0.61,-0.43c-0.06,-0.04 -0.32,0.15 -0.36,0.28c-1.71,5.11 -3.4,10.23 -5.21,15.68c3.84,0 7.07,0 10.9,0c-1.56,-5.14 -3.03,-9.99 -4.72,-15.52z" fill="#FBFBFB" id="svg_16" opacity="1"/>
   <path d="m347.2,120.77c-6.71,0 -12.94,0 -19.48,0c0,-15.82 0,-31.42 0,-47.25c3.98,0 7.87,0 12.38,0c0,12.5 0,25.04 0,37.88c6.63,0 12.64,0 19.28,0c-0.33,3.27 -0.61,6.18 -0.92,9.37c-3.91,0 -7.34,0 -11.27,0z" fill="#FBFBFB" id="svg_17" opacity="1"/>
   <path d="m240.73,96.41c-0.25,-0.68 -0.22,-1.51 -0.2,-2.35c0.35,0.16 0.68,0.33 1.11,0.8c-0.14,0.67 -0.39,1.02 -0.91,1.55z" fill="#343436" id="svg_18" opacity="1"/>
   <path d="m298.86,86.22c1.58,5.19 3.05,10.04 4.62,15.18c-3.84,0 -7.07,0 -10.9,0c1.81,-5.45 3.5,-10.56 5.21,-15.68c0.04,-0.13 0.3,-0.32 0.36,-0.28c0.23,0.1 0.42,0.28 0.72,0.77z" fill="#464646" id="svg_19" opacity="1"/>
  </g>
 </g>
</svg>