<svg version="1.1" id="Layer_1" xmlns="http://www.w3.org/2000/svg" xmlns:xlink="http://www.w3.org/1999/xlink" x="0px" y="0px"
	 width="100%" viewBox="0 0 400 151" enable-background="new 0 0 400 151" xml:space="preserve">
<path fill="#FDFDFD" opacity="1.000000" stroke="none" 
	d="
M257.000000,152.000000 
	C171.333359,152.000000 86.166710,152.000000 1.000046,152.000000 
	C1.000031,101.666702 1.000031,51.333397 1.000015,1.000073 
	C134.333267,1.000048 267.666534,1.000048 400.999878,1.000024 
	C400.999908,51.333256 400.999908,101.666512 400.999939,151.999878 
	C353.166656,152.000000 305.333344,152.000000 257.000000,152.000000 
M114.502975,136.181030 
	C114.672630,136.134018 114.842278,136.087021 115.750671,136.206802 
	C116.499413,136.140671 117.248161,136.074554 118.741524,136.170197 
	C119.497673,136.121384 120.253815,136.072571 121.926796,136.220566 
	C127.282814,136.154694 132.638824,136.088837 138.499939,136.139969 
	C138.665619,136.090729 138.831284,136.041504 139.768417,136.067154 
	C143.493134,134.962692 143.763275,132.216019 143.259079,128.498260 
	C143.215439,128.319092 143.171799,128.139938 143.336639,127.047050 
	C143.265457,106.709572 143.194275,86.372093 143.251755,65.499260 
	C143.202789,65.322372 143.153839,65.145493 143.331345,64.149231 
	C142.826843,57.593834 137.719498,55.742832 128.104202,58.677444 
	C134.640884,78.338821 131.359085,95.561272 115.532356,109.787109 
	C114.432510,110.775703 114.086052,112.987343 114.007362,114.659325 
	C113.695648,121.282234 113.629951,127.916733 113.147202,135.013916 
	C113.429665,135.355255 113.712135,135.696594 114.502975,136.181030 
M151.497528,57.734531 
	C151.324295,57.796352 151.151077,57.858177 150.168701,58.286190 
	C150.104630,83.578751 150.033066,108.871300 150.018250,134.163895 
	C150.017868,134.821716 150.637558,135.479904 151.501083,136.329636 
	C151.680832,136.271851 151.860580,136.214081 152.943497,136.411667 
	C226.407898,136.430237 299.872314,136.460617 373.336700,136.450851 
	C381.534271,136.449753 385.277374,132.681549 385.296509,124.553223 
	C385.338074,106.895134 385.309753,89.236885 385.308929,71.578697 
	C385.308441,60.733536 382.197113,57.601597 371.387482,57.601059 
	C300.088379,57.597507 228.789307,57.595848 157.490219,57.609509 
	C155.669037,57.609859 153.847885,57.792915 151.497528,57.734531 
M51.024189,136.216843 
	C67.352112,136.232635 83.680138,136.285828 100.007912,136.242996 
	C105.387711,136.228882 107.206047,134.400726 107.333588,129.049774 
	C107.439987,124.585777 107.355408,120.117226 107.355408,114.964516 
	C91.552216,122.635712 77.163910,119.648178 63.429703,110.894318 
	C58.923664,108.022285 58.608723,105.515274 62.327316,101.699509 
	C68.954720,94.898926 75.681877,88.195648 82.341011,81.425812 
	C86.610558,77.085297 86.636398,74.881973 82.335754,70.525581 
	C75.663986,63.767334 68.872543,57.126846 62.228294,50.341984 
	C58.810753,46.852123 58.894592,44.135765 62.682220,41.670742 
	C75.608925,33.257935 89.260971,29.463810 104.311859,35.786919 
	C105.157845,36.142326 106.083458,36.308182 107.371086,36.676380 
	C107.371086,32.254936 107.432602,28.279566 107.356369,24.306839 
	C107.247719,18.644377 105.461937,16.783907 99.821205,16.760937 
	C84.159721,16.697157 68.497627,16.694248 52.836166,16.760054 
	C47.370354,16.783022 45.437916,18.808077 45.376072,24.415287 
	C45.291550,32.078651 45.164215,39.750370 45.456329,47.403198 
	C45.534767,49.458164 46.609108,51.882034 48.016949,53.406250 
	C53.100132,58.909603 58.523342,64.098671 63.812595,69.411949 
	C69.706932,75.333069 69.663452,76.763901 63.659367,82.869644 
	C57.594460,89.037231 49.192852,94.297096 46.211021,101.720467 
	C43.149849,109.341370 45.407562,119.098885 45.338673,127.921341 
	C45.334770,128.421143 45.332829,128.921204 45.344292,129.420822 
	C45.420582,132.746323 46.685898,135.221451 51.024189,136.216843 
M16.368744,115.496536 
	C16.378904,120.327225 16.330158,125.159004 16.419447,129.988220 
	C16.481390,133.338409 17.912374,136.153671 21.475161,136.351334 
	C27.521830,136.686798 33.600605,136.443573 38.910042,136.443573 
	C38.910042,126.598808 38.981407,117.318756 38.844357,108.041779 
	C38.819645,106.369217 38.370201,104.377747 37.385960,103.093788 
	C24.603647,86.419029 23.483999,69.387817 35.597855,51.900921 
	C39.802624,45.831142 38.427593,40.228596 38.841190,33.838425 
	C35.228848,33.838425 32.249847,33.837212 29.270847,33.838631 
	C16.509754,33.844723 16.367853,33.985611 16.368383,46.532654 
	C16.369343,69.187698 16.368967,91.842743 16.368744,115.496536 
z"/>
<path fill="#424244" opacity="1.000000" stroke="none" 
	d="
M150.968079,136.137909 
	C150.637558,135.479904 150.017868,134.821716 150.018250,134.163895 
	C150.033066,108.871300 150.104630,83.578751 150.674423,58.277664 
	C151.462341,58.143009 151.744522,58.016884 152.026718,57.890759 
	C153.847885,57.792915 155.669037,57.609859 157.490219,57.609509 
	C228.789307,57.595848 300.088379,57.597507 371.387482,57.601059 
	C382.197113,57.601597 385.308441,60.733536 385.308929,71.578697 
	C385.309753,89.236885 385.338074,106.895134 385.296509,124.553223 
	C385.277374,132.681549 381.534271,136.449753 373.336700,136.450851 
	C299.872314,136.460617 226.407898,136.430237 152.396408,136.097580 
	C151.555573,135.901627 151.261826,136.019760 150.968079,136.137909 
M241.537582,97.652039 
	C241.781509,97.282402 242.025452,96.912773 242.835312,96.944023 
	C247.170181,103.256042 252.082916,109.257835 255.683212,115.964211 
	C259.562836,123.190918 264.993683,124.356323 272.245483,122.542984 
	C272.245483,106.492599 272.245483,90.397423 272.245483,74.181824 
	C268.449158,74.181824 264.891602,74.181824 260.947205,74.181824 
	C260.947205,83.211029 260.947205,91.929031 260.947205,101.861618 
	C259.314240,99.607147 258.350555,98.367424 257.483002,97.063713 
	C252.964722,90.273865 248.533218,83.424858 243.911163,76.706757 
	C243.078491,75.496475 241.566742,74.136147 240.247147,73.997108 
	C236.687943,73.622093 233.063202,73.868813 229.446625,73.868813 
	C229.446625,90.591286 229.446625,106.662430 229.446625,122.739258 
	C233.301849,122.739258 236.861725,122.739258 240.972336,122.739258 
	C240.972336,114.264542 240.972336,106.135620 241.537582,97.652039 
M207.107071,76.724335 
	C207.107071,85.885422 207.136658,95.046631 207.096771,104.207542 
	C207.069656,110.436188 204.865524,113.058380 199.657928,113.248817 
	C193.735764,113.465378 190.267654,110.387680 190.020081,104.304726 
	C189.810257,99.149445 189.945435,93.979904 189.937881,88.816666 
	C189.930695,83.891792 189.936340,78.966896 189.936340,74.103134 
	C185.259491,74.103134 181.319458,74.103134 177.056015,74.103134 
	C177.056015,85.961639 176.741821,97.590759 177.173889,109.192085 
	C177.432907,116.146614 181.446747,121.565315 188.340759,122.843292 
	C194.221069,123.933357 200.620087,124.031250 206.486481,122.939331 
	C214.044617,121.532501 218.880753,115.872726 219.299210,108.189049 
	C219.911652,96.943512 219.456787,85.639847 219.456787,73.861351 
	C216.432480,73.861351 213.624863,73.665024 210.866302,73.947533 
	C209.566055,74.080696 208.359970,75.133133 207.107071,76.724335 
M277.934387,115.523033 
	C277.185028,117.862144 276.435669,120.201256 275.578278,122.877609 
	C279.862518,122.877609 283.625732,122.877609 287.303040,122.877609 
	C291.609528,112.002907 291.642700,112.458649 300.027710,111.848114 
	C305.941559,111.417519 308.836487,113.269058 309.801758,119.068825 
	C310.047821,120.547356 311.787445,122.699341 313.094177,122.901031 
	C316.578705,123.438896 320.201050,123.084015 324.210205,123.084015 
	C318.918976,106.253647 313.852631,90.138649 308.736084,73.863876 
	C304.093475,73.863876 299.769073,74.037910 295.467102,73.802292 
	C292.630127,73.646919 291.428192,74.669144 290.563782,77.367622 
	C286.558350,89.871094 282.306854,102.295761 277.934387,115.523033 
M349.465546,123.084244 
	C352.939270,123.084244 356.413025,123.084244 360.365662,123.084244 
	C360.682587,119.782387 360.972382,116.763023 361.298096,113.369476 
	C354.584320,113.369476 348.500183,113.369476 341.786743,113.369476 
	C341.786743,100.063782 341.786743,87.060745 341.786743,74.102531 
	C337.219879,74.102531 333.290070,74.102531 329.262054,74.102531 
	C329.262054,90.511520 329.262054,106.676056 329.262054,123.084198 
	C335.883911,123.084198 342.179138,123.084198 349.465546,123.084244 
z"/>
<path fill="#0683C4" opacity="1.000000" stroke="none" 
	d="
M50.586426,136.167969 
	C46.685898,135.221451 45.420582,132.746323 45.344292,129.420822 
	C45.332829,128.921204 45.334770,128.421143 45.338673,127.921341 
	C45.407562,119.098885 43.149849,109.341370 46.211021,101.720467 
	C49.192852,94.297096 57.594460,89.037231 63.659367,82.869644 
	C69.663452,76.763901 69.706932,75.333069 63.812595,69.411949 
	C58.523342,64.098671 53.100132,58.909603 48.016949,53.406250 
	C46.609108,51.882034 45.534767,49.458164 45.456329,47.403198 
	C45.164215,39.750370 45.291550,32.078651 45.376072,24.415287 
	C45.437916,18.808077 47.370354,16.783022 52.836166,16.760054 
	C68.497627,16.694248 84.159721,16.697157 99.821205,16.760937 
	C105.461937,16.783907 107.247719,18.644377 107.356369,24.306839 
	C107.432602,28.279566 107.371086,32.254936 107.371086,36.676380 
	C106.083458,36.308182 105.157845,36.142326 104.311859,35.786919 
	C89.260971,29.463810 75.608925,33.257935 62.682220,41.670742 
	C58.894592,44.135765 58.810753,46.852123 62.228294,50.341984 
	C68.872543,57.126846 75.663986,63.767334 82.335754,70.525581 
	C86.636398,74.881973 86.610558,77.085297 82.341011,81.425812 
	C75.681877,88.195648 68.954720,94.898926 62.327316,101.699509 
	C58.608723,105.515274 58.923664,108.022285 63.429703,110.894318 
	C77.163910,119.648178 91.552216,122.635712 107.355408,114.964516 
	C107.355408,120.117226 107.439987,124.585777 107.333588,129.049774 
	C107.206047,134.400726 105.387711,136.228882 100.007912,136.242996 
	C83.680138,136.285828 67.352112,136.232635 50.586426,136.167969 
z"/>
<path fill="#DF6741" opacity="1.000000" stroke="none" 
	d="
M16.368946,114.997162 
	C16.368967,91.842743 16.369343,69.187698 16.368383,46.532654 
	C16.367853,33.985611 16.509754,33.844723 29.270847,33.838631 
	C32.249847,33.837212 35.228848,33.838425 38.841190,33.838425 
	C38.427593,40.228596 39.802624,45.831142 35.597855,51.900921 
	C23.483999,69.387817 24.603647,86.419029 37.385960,103.093788 
	C38.370201,104.377747 38.819645,106.369217 38.844357,108.041779 
	C38.981407,117.318756 38.910042,126.598808 38.910042,136.443573 
	C33.600605,136.443573 27.521830,136.686798 21.475161,136.351334 
	C17.912374,136.153671 16.481390,133.338409 16.419447,129.988220 
	C16.330158,125.159004 16.378904,120.327225 16.368946,114.997162 
z"/>
<path fill="#DE633D" opacity="1.000000" stroke="none" 
	d="
M117.996902,136.008423 
	C117.248161,136.074554 116.499413,136.140671 115.279114,135.901520 
	C114.619774,135.310577 114.360420,135.124863 113.894882,134.910980 
	C113.760277,134.782852 113.473061,134.546936 113.473061,134.546936 
	C113.629951,127.916733 113.695648,121.282234 114.007362,114.659325 
	C114.086052,112.987343 114.432510,110.775703 115.532356,109.787109 
	C131.359085,95.561272 134.640884,78.338821 128.104202,58.677444 
	C137.719498,55.742832 142.826843,57.593834 143.036743,64.657021 
	C142.869125,65.454750 142.996109,65.744682 143.123108,66.034615 
	C143.194275,86.372093 143.265457,106.709572 143.047699,127.598770 
	C142.682587,128.264008 142.519409,128.449356 142.544250,128.479431 
	C142.711517,128.681931 142.918655,128.851501 143.112885,129.031738 
	C143.763275,132.216019 143.493134,134.962692 139.288254,135.865906 
	C138.537003,135.784088 138.265930,135.903534 137.994843,136.022964 
	C132.638824,136.088837 127.282814,136.154694 121.286964,135.867569 
	C119.763725,135.679184 118.880310,135.843796 117.996902,136.008423 
z"/>
<path fill="#DE562C" opacity="1.000000" stroke="none" 
	d="
M118.369217,136.089310 
	C118.880310,135.843796 119.763725,135.679184 120.828552,135.769165 
	C120.253815,136.072571 119.497673,136.121384 118.369217,136.089310 
z"/>
<path fill="#DD5A2C" opacity="1.000000" stroke="none" 
	d="
M143.187439,65.766937 
	C142.996109,65.744682 142.869125,65.454750 142.923523,65.066711 
	C143.153839,65.145493 143.202789,65.322372 143.187439,65.766937 
z"/>
<path fill="#323232" opacity="1.000000" stroke="none" 
	d="
M151.762115,57.812645 
	C151.744522,58.016884 151.462341,58.143009 151.078995,58.094570 
	C151.151077,57.858177 151.324295,57.796352 151.762115,57.812645 
z"/>
<path fill="#DD5A2C" opacity="1.000000" stroke="none" 
	d="
M143.185974,128.764999 
	C142.918655,128.851501 142.711517,128.681931 142.544250,128.479431 
	C142.519409,128.449356 142.682587,128.264008 142.943466,128.055649 
	C143.171799,128.139938 143.215439,128.319092 143.185974,128.764999 
z"/>
<path fill="#DE633D" opacity="1.000000" stroke="none" 
	d="
M113.994598,136.037933 
	C113.712135,135.696594 113.429665,135.355255 113.310135,134.780426 
	C113.473061,134.546936 113.760277,134.782852 113.882431,135.160309 
	C114.001259,135.704498 113.997932,135.871216 113.994598,136.037933 
z"/>
<path fill="#DE562C" opacity="1.000000" stroke="none" 
	d="
M114.248787,136.109482 
	C113.997932,135.871216 114.001259,135.704498 114.017044,135.288437 
	C114.360420,135.124863 114.619774,135.310577 114.909744,135.818130 
	C114.842278,136.087021 114.672630,136.134018 114.248787,136.109482 
z"/>
<path fill="#DE562C" opacity="1.000000" stroke="none" 
	d="
M138.247391,136.081467 
	C138.265930,135.903534 138.537003,135.784088 138.902512,135.828461 
	C138.831284,136.041504 138.665619,136.090729 138.247391,136.081467 
z"/>
<path fill="#353537" opacity="1.000000" stroke="none" 
	d="
M151.234589,136.233765 
	C151.261826,136.019760 151.555573,135.901627 151.944824,135.969894 
	C151.860580,136.214081 151.680832,136.271851 151.234589,136.233765 
z"/>
<path fill="#FBFBFB" opacity="1.000000" stroke="none" 
	d="
M240.972336,98.006691 
	C240.972336,106.135620 240.972336,114.264542 240.972336,122.739258 
	C236.861725,122.739258 233.301849,122.739258 229.446625,122.739258 
	C229.446625,106.662430 229.446625,90.591286 229.446625,73.868813 
	C233.063202,73.868813 236.687943,73.622093 240.247147,73.997108 
	C241.566742,74.136147 243.078491,75.496475 243.911163,76.706757 
	C248.533218,83.424858 252.964722,90.273865 257.483002,97.063713 
	C258.350555,98.367424 259.314240,99.607147 260.947205,101.861618 
	C260.947205,91.929031 260.947205,83.211029 260.947205,74.181824 
	C264.891602,74.181824 268.449158,74.181824 272.245483,74.181824 
	C272.245483,90.397423 272.245483,106.492599 272.245483,122.542984 
	C264.993683,124.356323 259.562836,123.190918 255.683212,115.964211 
	C252.082916,109.257835 247.170181,103.256042 242.457825,96.424316 
	C241.737930,95.732841 241.395554,95.561081 241.053162,95.389313 
	C241.026230,96.261772 240.999283,97.134232 240.972336,98.006691 
z"/>
<path fill="#FAFAFA" opacity="1.000000" stroke="none" 
	d="
M207.109131,76.246681 
	C208.359970,75.133133 209.566055,74.080696 210.866302,73.947533 
	C213.624863,73.665024 216.432480,73.861351 219.456787,73.861351 
	C219.456787,85.639847 219.911652,96.943512 219.299210,108.189049 
	C218.880753,115.872726 214.044617,121.532501 206.486481,122.939331 
	C200.620087,124.031250 194.221069,123.933357 188.340759,122.843292 
	C181.446747,121.565315 177.432907,116.146614 177.173889,109.192085 
	C176.741821,97.590759 177.056015,85.961639 177.056015,74.103134 
	C181.319458,74.103134 185.259491,74.103134 189.936340,74.103134 
	C189.936340,78.966896 189.930695,83.891792 189.937881,88.816666 
	C189.945435,93.979904 189.810257,99.149445 190.020081,104.304726 
	C190.267654,110.387680 193.735764,113.465378 199.657928,113.248817 
	C204.865524,113.058380 207.069656,110.436188 207.096771,104.207542 
	C207.136658,95.046631 207.107071,85.885422 207.109131,76.246681 
z"/>
<path fill="#FBFBFB" opacity="1.000000" stroke="none" 
	d="
M278.038940,115.135841 
	C282.306854,102.295761 286.558350,89.871094 290.563782,77.367622 
	C291.428192,74.669144 292.630127,73.646919 295.467102,73.802292 
	C299.769073,74.037910 304.093475,73.863876 308.736084,73.863876 
	C313.852631,90.138649 318.918976,106.253647 324.210205,123.084015 
	C320.201050,123.084015 316.578705,123.438896 313.094177,122.901031 
	C311.787445,122.699341 310.047821,120.547356 309.801758,119.068825 
	C308.836487,113.269058 305.941559,111.417519 300.027710,111.848114 
	C291.642700,112.458649 291.609528,112.002907 287.303040,122.877609 
	C283.625732,122.877609 279.862518,122.877609 275.578278,122.877609 
	C276.435669,120.201256 277.185028,117.862144 278.038940,115.135841 
M299.949402,86.916389 
	C299.747528,86.759125 299.561249,86.567146 299.334473,86.465408 
	C299.265015,86.434258 299.008636,86.625908 298.965851,86.757240 
	C297.238983,92.055305 295.526825,97.358170 293.700958,103.006348 
	C297.576782,103.006348 300.848114,103.006348 304.726837,103.006348 
	C303.147430,97.680359 301.657074,92.654640 299.949402,86.916389 
z"/>
<path fill="#FBFBFB" opacity="1.000000" stroke="none" 
	d="
M348.969971,123.084221 
	C342.179138,123.084198 335.883911,123.084198 329.262054,123.084198 
	C329.262054,106.676056 329.262054,90.511520 329.262054,74.102531 
	C333.290070,74.102531 337.219879,74.102531 341.786743,74.102531 
	C341.786743,87.060745 341.786743,100.063782 341.786743,113.369476 
	C348.500183,113.369476 354.584320,113.369476 361.298096,113.369476 
	C360.972382,116.763023 360.682587,119.782387 360.365662,123.084244 
	C356.413025,123.084244 352.939270,123.084244 348.969971,123.084221 
z"/>
<path fill="#343436" opacity="1.000000" stroke="none" 
	d="
M241.254959,97.829361 
	C240.999283,97.134232 241.026230,96.261772 241.053162,95.389313 
	C241.395554,95.561081 241.737930,95.732841 242.174866,96.223877 
	C242.025452,96.912773 241.781509,97.282402 241.254959,97.829361 
z"/>
<path fill="#464646" opacity="1.000000" stroke="none" 
	d="
M300.058044,87.272659 
	C301.657074,92.654640 303.147430,97.680359 304.726837,103.006348 
	C300.848114,103.006348 297.576782,103.006348 293.700958,103.006348 
	C295.526825,97.358170 297.238983,92.055305 298.965851,86.757240 
	C299.008636,86.625908 299.265015,86.434258 299.334473,86.465408 
	C299.561249,86.567146 299.747528,86.759125 300.058044,87.272659 
z"/>
</svg>